{"title":"Territory 8 2014 Movies DVDRip XViD AAC New Source +Sample â˜»rDXâ˜»","uid":11721713,"size":740948415,"categoryP":"video","categoryS":"movies","magnet":"?xt=urn:btih:b47cdb54ede18567a56ae90feea39c198d5ad400&amp;dn=Territory+8+2014+Movies+DVDRip+XViD+AAC+New+Source+%2BSample+%E2%98%BBrDX%E2%98%BB&amp;tr=udp%3A%2F%2Ftracker.openbittorrent.com%3A80&amp;tr=udp%3A%2F%2Fopen.demonii.com%3A1337&amp;tr=udp%3A%2F%2Ftracker.coppersurfer.tk%3A6969&amp;tr=udp%3A%2F%2Fexodus.desync.com%3A6969","seeders":1,"leechers":0,"uploader":"basicssom","files":2,"time":1424873505,"description":"----------------------------------------------------------------\nTerritory 8 2014 English Movies DVDRip XViD AAC New Source with Sample ~ â˜»rDXâ˜»\n\nSCREEN SHOTS &amp; POSTER:\n &lt;a href=&quot;\nhttp://planethost.co.nr/2015/2/Territory8/11.html&quot; rel=&quot;nofollow&quot; target=&quot;_NEW&quot;&gt;\nhttp://planethost.co.nr/2015/2/Territory8/11.html&lt;/a&gt; &lt;a href=&quot;\nhttp://planethost.co.nr/2015/2/Territory8/1.html&quot; rel=&quot;nofollow&quot; target=&quot;_NEW&quot;&gt;\nhttp://planethost.co.nr/2015/2/Territory8/1.html&lt;/a&gt; &lt;a href=&quot;\nhttp://planethost.co.nr/2015/2/Territory8/2.html&quot; rel=&quot;nofollow&quot; target=&quot;_NEW&quot;&gt;\nhttp://planethost.co.nr/2015/2/Territory8/2.html&lt;/a&gt; &lt;a href=&quot;\nhttp://planethost.co.nr/2015/2/Territory8/3.html&quot; rel=&quot;nofollow&quot; target=&quot;_NEW&quot;&gt;\nhttp://planethost.co.nr/2015/2/Territory8/3.html&lt;/a&gt; &lt;a href=&quot;\nhttp://planethost.co.nr/2015/2/Territory8/4.html&quot; rel=&quot;nofollow&quot; target=&quot;_NEW&quot;&gt;\nhttp://planethost.co.nr/2015/2/Territory8/4.html&lt;/a&gt; &lt;a href=&quot;\nhttp://planethost.co.nr/2015/2/Territory8/5.html&quot; rel=&quot;nofollow&quot; target=&quot;_NEW&quot;&gt;\nhttp://planethost.co.nr/2015/2/Territory8/5.html&lt;/a&gt; &lt;a href=&quot;\nhttp://planethost.co.nr/2015/2/Territory8/6.html&quot; rel=&quot;nofollow&quot; target=&quot;_NEW&quot;&gt;\nhttp://planethost.co.nr/2015/2/Territory8/6.html&lt;/a&gt; &lt;a href=&quot;\nhttp://planethost.co.nr/2015/2/Territory8/7.html&quot; rel=&quot;nofollow&quot; target=&quot;_NEW&quot;&gt;\nhttp://planethost.co.nr/2015/2/Territory8/7.html&lt;/a&gt; &lt;a href=&quot;\nhttp://planethost.co.nr/2015/2/Territory8/8.html&quot; rel=&quot;nofollow&quot; target=&quot;_NEW&quot;&gt;\nhttp://planethost.co.nr/2015/2/Territory8/8.html&lt;/a&gt; &lt;a href=&quot;\nhttp://planethost.co.nr/2015/2/Territory8/9.html&quot; rel=&quot;nofollow&quot; target=&quot;_NEW&quot;&gt;\nhttp://planethost.co.nr/2015/2/Territory8/9.html&lt;/a&gt; &lt;a href=&quot;\nhttp://planethost.co.nr/2015/2/Territory8/10.html&quot; rel=&quot;nofollow&quot; target=&quot;_NEW&quot;&gt;\nhttp://planethost.co.nr/2015/2/Territory8/10.html&lt;/a&gt;\n\nFormat                                   : Matroska\nFormat version                           : Version 4 / Version 2\nFile size                                : 694 MiB\nDuration                                 : 1h 17mn\nOverall bit rate                         : 1 252 Kbps\nMovie name                               : Territory 8 2014 English Movies DVDRip XViD AAC New Source ~ rDX ~\n\nVideo\nID                                       : 1\nFormat                                   : MPEG-4 Visual\nFormat profile                           : Advanced Simple@L5\nFormat settings, BVOP                    : Yes\nFormat settings, QPel                    : No\nFormat settings, GMC                     : No warppoints\nFormat settings, Matrix                  : Default (H.263)\nCodec ID                                 : V_MS/VFW/FOURCC / XVID\nCodec ID/Hint                            : XviD\nDuration                                 : 1h 17mn\nBit rate                                 : 1 099 Kbps\nWidth                                    : 640 pixels\nHeight                                   : 352 pixels\nDisplay aspect ratio                     : 16:9\nFrame rate mode                          : Constant\nFrame rate                               : 25.000 fps\nColor space                              : YUV\nChroma subsampling                       : 4:2:0\nBit depth                                : 8 bits\nScan type                                : Progressive\nCompression mode                         : Lossy\nBits/(Pixel*Frame)                       : 0.195\nStream size                              : 609 MiB (88%)\nTitle                                    : ~ rDX ~\nWriting library                          : XviD 64\nDefault                                  : Yes\nForced                                   : No\n\nAudio\nID                                       : 2\nFormat                                   : MPEG Audio\nFormat version                           : Version 1\nFormat profile                           : Layer 3\nMode                                     : Joint stereo\nMode extension                           : MS Stereo\nCodec ID                                 : A_MPEG/L3\nCodec ID/Hint                            : MP3\nDuration                                 : 1h 17mn\nBit rate mode                            : Constant\nBit rate                                 : 128 Kbps\nChannel(s)                               : 2 channels\nSampling rate                            : 48.0 KHz\nCompression mode                         : Lossy\nStream size                              : 70.9 MiB (10%)\nTitle                                    : ~ rDX ~\nWriting library                          : LAME3.99r\nEncoding settings                        : -m j -V 4 -q 3 -lowpass 17 -b 128\nDefault                                  : Yes\nForced                                   : No","torrent":{"xt":"urn:btih:b47cdb54ede18567a56ae90feea39c198d5ad400","amp;dn":"Territory+8+2014+Movies+DVDRip+XViD+AAC+New+Source+%2BSample+%E2%98%BBrDX%E2%98%BB","amp;tr":["udp%3A%2F%2Ftracker.openbittorrent.com%3A80","udp%3A%2F%2Fopen.demonii.com%3A1337","udp%3A%2F%2Ftracker.coppersurfer.tk%3A6969","udp%3A%2F%2Fexodus.desync.com%3A6969"],"infoHash":"b47cdb54ede18567a56ae90feea39c198d5ad400","infoHashBuffer":{"type":"Buffer","data":[180,124,219,84,237,225,133,103,165,106,233,15,238,163,156,25,141,90,212,0]},"announce":[],"urlList":[]}}